<svg width="1920" height="1080" viewBox="0 0 1920 1080" fill="none" xmlns="http://www.w3.org/2000/svg">
    <mask id="mask0_551_1493" style="mask-type:luminance" maskUnits="userSpaceOnUse" x="-2" y="-1" width="1924" height="1083">
        <path d="M1921.39 -0.430664H-1.27148V1081.88H1921.39V-0.430664Z" fill="white"/>
    </mask>
    <g mask="url(#mask0_551_1493)">
        <path d="M636.438 -25.1934C618.954 7.66549 601.479 40.5243 584.013 73.3832C578.886 82.9941 573.759 92.8647 573.938 103.493C574.348 122.152 591.242 137.109 601.573 153.582C608.542 165.452 613.479 178.096 616.237 191.138C626.083 231.777 626.387 273.653 617.134 314.391C613.007 332.552 606.88 350.67 607.828 369.134C608.803 389.395 618.083 408.877 619.108 429.116C619.723 441.433 617.314 454.269 622.62 465.763C633.131 488.535 667.995 495.505 685.479 515.008C696.066 526.827 699.655 542.672 712.114 553.127C726.085 564.859 747.517 566.85 767.179 567.911C814.315 570.451 861.51 571.41 908.764 570.79C935.938 570.444 963.855 569.426 988.748 560.205C1005.08 554.144 1019.69 544.685 1036.87 540.55C1061.09 534.749 1086.88 540.312 1111.21 545.875C1166.02 558.408 1226.85 574.903 1252.92 617.459C1274.23 652.244 1268.84 699.996 1305.24 724.261C1321.98 735.409 1345.95 739.976 1356.18 755.756C1367.08 772.575 1356.87 793.118 1356.34 812.274C1355.75 833.92 1367.8 854.203 1371.23 875.589C1378 917.778 1351.03 958.905 1350.54 1001.48C1350.53 1020.91 1355.98 1040.07 1366.44 1057.38C1376.9 1074.69 1392.07 1089.66 1410.71 1101.06" stroke="#29B6F6" stroke-width="3" stroke-miterlimit="10"/>
        <path d="M-47.9785 685.318C-30.7771 703.609 2.60028 704.799 28.3896 696.379C54.1789 687.959 75.3281 671.897 98.9384 659.775C131.88 642.74 169.359 633.215 206.607 624.319C286.077 605.292 370.341 588.235 450.375 605.487C484.393 612.803 520.719 630.921 525.051 660.338C527.179 674.928 520.847 689.344 514.618 703.068L477.831 784.111C464.423 813.658 450.785 844.937 456.81 876.151C463.577 911.218 497.262 941.457 538.279 949.337C571.605 955.722 609.495 949.055 637.796 965.117C661.996 978.84 671.122 1005.36 672.327 1030.06C673.071 1047.16 670.302 1065.3 657.869 1078.8C646.435 1091.23 626.183 1103.11 632.233 1118.05" stroke="#29B6F6" stroke-width="3" stroke-miterlimit="10"/>
        <path d="M1934.73 134.708C1914.07 148.583 1884.28 144.015 1858.46 139.34C1714.01 113.148 1559.78 106.135 1421.5 149.968C1371.9 165.683 1321.12 191.702 1305.02 234.388C1299.02 250.342 1298.43 267.356 1297.89 284.175C1296.74 321.081 1295.69 358.746 1308.35 394.094C1316.58 417.017 1330.37 438.296 1346.42 458.037C1357.49 471.674 1370.21 485.073 1387.44 492.671C1403.15 499.619 1421.27 501.329 1438.94 502.52C1461.77 504.093 1484.65 505.089 1507.56 505.507C1519.61 505.723 1532.1 505.702 1543.15 501.676C1556.35 496.892 1565.83 487.043 1574.75 477.54L1674.99 371.192C1693.37 351.711 1712.31 331.753 1737.54 318.809C1762.76 305.864 1796.07 301.124 1821.8 313.354C1832.49 318.441 1841.21 326.082 1851.8 331.342C1887.97 349.395 1933.83 335.844 1972.28 321.558" stroke="#29B6F6" stroke-width="3" stroke-miterlimit="10"/>
        <path d="M-20.573 616.133C-25.3668 621.891 -14.0359 627.54 -5.70433 627.778C35.3126 628.861 74.5094 615.743 113.04 603.968C230.912 568.425 360.192 544.809 480.68 572.862C509.007 579.356 537.411 589.378 557.279 607.648C590.349 638.082 592.323 684.794 580.633 724.905C568.943 765.015 545.82 802.268 534.489 842.465C531.464 853.288 529.362 865.042 534.848 875.129C539.052 882.9 547.23 888.636 555.92 893.03C594.886 912.771 646.029 909.892 683.816 931.214C714.835 948.682 731.627 980.112 736.19 1011.3C740.753 1042.5 734.703 1074.08 728.627 1105.21" stroke="#29B6F6" stroke-miterlimit="10"/>
        <path d="M-53.3867 753.073C-38.7232 759.199 -21.7012 759.567 -5.32005 759.285C6.9625 759.493 19.2294 758.439 31.2106 756.147C52.565 751.363 70.5099 739.566 88.8137 729.046C157.825 688.948 236.936 662.952 319.893 653.112C345.221 650.103 371.036 643.696 396.645 647.181C423.665 650.86 450.275 666.164 456.299 688.698C461.273 707.313 451.736 726.21 443.482 743.96C421.973 790.304 407.976 841.042 419.666 889.811C431.356 938.579 473.68 984.512 531.463 994.426C545.768 996.872 560.867 997.218 574.018 1002.54C596.603 1011.72 608.37 1034.58 606.319 1055.66C604.268 1076.75 590.604 1095.99 573.582 1111.51" stroke="#29B6F6" stroke-miterlimit="10"/>
        <path d="M153.439 750.923C94.4778 768.413 33.6447 786.726 -13.0119 821.966C-44.8512 846.036 -69.4869 886.082 -48.1582 917.36C-43.7961 923.784 -37.7766 929.296 -30.5466 933.487C-14.7038 942.643 5.47131 944.699 24.6723 944.158C88.1714 942.34 146.415 915.607 201.942 889.545C244.215 869.696 286.975 848.894 322.582 820.949C349.525 799.8 395.08 756.53 388.158 721.961C376.263 662.716 186.817 741.053 153.439 750.923Z" stroke="#29B6F6" stroke-miterlimit="10"/>
        <path d="M28.2099 836.996C8.98328 850.784 -5.34696 870.504 -5.73149 891.739C-5.98098 894.484 -5.32433 897.234 -3.83446 899.683C-1.27091 903.146 3.67674 904.597 8.39367 905.398C29.3379 909.056 51.1537 905.398 71.4826 899.661C102.318 891.29 130.941 877.956 155.772 860.395C168.59 851.152 180.972 839.096 180.767 824.852C180.382 797.08 142.775 791.994 118.447 799.461C87.0177 809.137 54.0505 818.337 28.2099 836.996Z" stroke="#29B6F6" stroke-miterlimit="10"/>
        <path d="M253.572 757.771C241.395 764.72 231.551 775.629 230.705 788.076C230.295 794.353 232.91 801.431 239.575 804.202C242.278 805.198 245.189 805.728 248.138 805.761C262.189 806.395 276.21 804.115 288.977 799.119C301.744 794.123 312.868 786.564 321.378 777.101C338.862 757.425 327.197 742.749 299.152 744.048C282.807 745.208 267.099 749.937 253.572 757.771Z" stroke="#29B6F6" stroke-miterlimit="10"/>
        <path d="M-28.7012 975.372C17.2889 984.94 65.7655 976.368 111.063 964.679C160.566 951.93 209.17 935.241 251.443 910.045C269.388 899.395 286.487 887.035 307.457 881.754C328.427 876.472 354.857 880.736 365.316 896.906C374.109 910.499 369.11 927.405 373.263 942.492C378.8 962.71 399.847 977.126 420.919 987.754C438.648 996.761 457.332 1004.36 476.728 1010.44C499.595 1017.63 526.102 1024.57 536.279 1043.3C542.226 1054.12 540.97 1067.28 534.972 1078.17C528.562 1088.96 518.986 1098.17 507.157 1104.95" stroke="#29B6F6" stroke-miterlimit="10"/>
        <path d="M-35.2637 1014.13C57.4343 1023.09 151.875 1000.94 233.268 962.543C248.137 955.551 263.031 947.867 279.797 945.334C296.562 942.801 315.943 946.654 325.325 958.646C330.657 965.465 332.093 973.798 334.682 981.721C342.373 1004.88 362.625 1025.73 389.799 1033C400.899 1035.97 412.665 1036.66 423.945 1039.08C435.225 1041.51 446.607 1046.16 452.554 1054.62C462.603 1068.95 453.195 1087.38 441.377 1100.73" stroke="#29B6F6" stroke-miterlimit="10"/>
        <path d="M-31.6738 1063.24C52.539 1057.59 139.187 1050.97 214.427 1018.37C224.246 1014.04 233.962 1009.38 244.703 1007.2C255.444 1005.01 267.775 1005.79 276.235 1011.68C287.13 1019.19 289.206 1032.5 297.358 1042.18C306.177 1052.61 321.046 1057.78 334.607 1063.54C340.221 1065.95 346.015 1068.74 349.296 1073.28C351.478 1076.67 352.756 1080.41 353.039 1084.26C353.785 1090.01 353.827 1095.81 353.167 1101.58" stroke="#29B6F6" stroke-miterlimit="10"/>
        <path d="M98.2227 1085.51C122.781 1083.07 145.828 1074.49 169.823 1069.45C193.817 1064.41 220.863 1063.26 241.602 1074.58C251.574 1080.01 259.547 1088.02 270.442 1092" stroke="#29B6F6" stroke-miterlimit="10"/>
        <path d="M-24.5469 565.33C-19.266 572.69 -7.21724 573.577 2.98571 573.317C110.911 570.482 212.838 531.909 319.405 517.298C362.986 511.323 407.207 509.354 450.147 501.236C486.293 494.439 524.823 480.629 539.871 452.078C552.509 428.268 545.408 400.648 547.972 374.607C550.33 350.537 561.046 327.657 566.994 304.042C576.747 264.848 573.265 224.13 556.944 186.526C548.331 166.763 536.103 147.736 532.95 126.848C524.849 71.8454 580.247 23.6399 585.784 -31.6006" stroke="#29B6F6" stroke-miterlimit="10"/>
        <path d="M-26.3164 526.673C23.032 540.483 76.3795 525.699 126.164 513.058C209.971 491.779 295.713 476.373 382.519 466.995C409.052 464.137 436.943 461.453 458.733 448.336C484.369 432.881 496.52 405.693 500.724 379.328C504.929 352.963 502.621 326.1 506.441 299.692C509.005 281.553 514.542 263.132 509.902 245.274C505.467 228.26 492.342 213.974 483.036 198.432C472.45 180.374 466.851 160.524 466.66 140.376C466.469 120.227 471.691 100.305 481.934 82.1059C489.958 68.3606 500.648 55.8492 508.877 42.2338C523.925 16.8862 529.872 -11.4701 535.666 -39.3936" stroke="#29B6F6" stroke-miterlimit="10"/>
        <path d="M-17.4473 474.074C32.2346 489.876 88.0178 481.477 138.546 467.775C200.071 451.108 261.443 436.345 326.019 426.648C376.726 419.115 417.538 399.568 430.689 354.869C439.944 323.482 439.79 289.173 434.483 257.31C429.356 226.464 406.976 199.147 405.772 167.782C404.567 135.616 415.564 104.662 431.074 75.6126C449.019 41.888 472.347 6.49656 465.964 -31.8604" stroke="#29B6F6" stroke-miterlimit="10"/>
        <path d="M70.5094 193.497C32.1046 208.852 -0.850992 232.455 -25.0601 261.942C-49.5337 291.127 -63.8805 325.497 -66.4872 361.19C-67.5126 377.684 -65.5387 395.261 -54.1565 408.703C-34.0838 432.492 6.01026 434.657 40.4645 433.575C85.2227 432.605 129.861 429.206 174.103 423.401C218.555 417.253 262.238 407.729 302.999 392.88C333.172 381.884 365.883 365.194 379.623 338.894C395.492 308.59 385.878 271.553 368.446 243.088C344.81 204.536 290.719 190.445 244.216 180.747C186.767 168.755 124.344 172.284 70.5094 193.497Z" stroke="#29B6F6" stroke-miterlimit="10"/>
        <path d="M326.865 256.033C309.433 227.893 271.338 216.225 236.09 208.757C233.526 208.173 230.783 207.632 228.168 207.112C186.307 198.543 142.369 200.729 101.99 213.39C98.0931 214.645 94.2991 216.031 90.4025 217.502C59.9522 229.441 33.6722 247.821 14.1109 270.86C11.3423 274.078 8.72747 277.39 6.26645 280.796C-9.108 301.314 -17.9389 324.839 -19.3691 349.089C-19.3691 351.383 -19.3691 353.7 -19.3691 356.016C-19.0102 366.839 -16.216 377.662 -8.62783 386.32C7.21497 404.46 38.4135 406.408 65.7154 405.802C79.8919 405.455 94.2734 404.893 108.732 404.005C129.24 402.75 150.031 400.866 170.565 398.052C205.302 393.573 239.285 385.624 271.8 374.372C296.743 365.497 323.404 352.228 334.966 331.469C347.963 307.745 341.119 278.804 326.865 256.033Z" stroke="#29B6F6" stroke-miterlimit="10"/>
        <path d="M285.463 268.976C272.441 248.499 244.575 239.84 218.093 234.602L212.248 233.476C181.243 227.607 148.896 229.365 119.038 238.541C116.141 239.451 113.27 240.446 110.45 241.507C87.8219 250.001 68.0784 263.152 53.0261 279.755C50.8984 282.093 48.8988 284.496 47.0018 286.92C35.0335 301.715 28.3023 319.081 27.5957 336.988C27.5957 338.676 27.5957 340.386 27.7239 342.096C27.9757 350.013 31.0787 357.677 36.6194 364.067C48.2579 376.665 70.5608 378.353 90.7104 378.072C100.965 377.877 111.373 377.531 121.909 376.924C136.777 376.08 151.851 374.76 166.771 372.747C191.959 369.498 216.632 363.856 240.319 355.928C260.059 349.174 280.747 339.325 290.027 324.108C300.486 306.943 296.307 285.99 285.463 268.976Z" stroke="#29B6F6" stroke-miterlimit="10"/>
        <path d="M243.958 281.923C235.421 269.238 217.707 263.588 199.993 260.471L196.25 259.844C176.12 256.653 155.35 257.966 136.007 263.653C134.136 264.216 132.264 264.801 130.419 265.45C115.65 270.553 102.487 278.481 91.9654 288.611C90.5042 290.062 89.1199 291.533 87.7868 292.94C79.2246 302.573 74.1488 313.439 74.5846 324.782C74.5846 325.864 74.7127 326.946 74.8666 328.029C75.5275 333.063 77.9964 337.807 81.9419 341.622C89.2993 348.722 102.758 350.281 115.729 350.281C122.036 350.281 128.547 350.108 135.135 349.783C144.313 349.328 153.695 348.549 163.052 347.359C178.713 345.412 194.091 342.096 208.94 337.466C223.552 332.921 238.139 326.427 245.214 316.708C252.956 306.101 251.52 293.179 243.958 281.923Z" stroke="#29B6F6" stroke-miterlimit="10"/>
        <path d="M122.164 314.241C123.189 316.382 124.982 318.199 127.291 319.436C131.419 321.839 139.238 322.878 148.415 322.748C158.271 322.528 168.055 321.263 177.537 318.981C186.971 316.687 195.482 313.397 200.301 309.327C205.121 305.258 206.71 300.366 202.352 294.868C198.353 289.846 190.765 287.162 181.844 286.339C172.097 285.634 162.28 286.478 152.901 288.828C144.028 290.771 135.756 294.308 128.65 299.197C122.856 303.613 119.96 308.786 122.164 314.241Z" stroke="#29B6F6" stroke-miterlimit="10"/>
        <path d="M407.614 -17.293C417.253 -7.01111 418.638 7.40513 415.305 20.1979C411.973 32.9907 404.256 44.6579 397.207 56.3468C386.262 74.3904 376.472 92.9172 367.88 111.847C363.111 122.454 358.189 133.775 347.525 140.658C336.861 147.541 322.402 148.645 308.892 148.754C253.981 149.187 199.352 138.883 144.518 141.329C75.225 144.663 9.41629 168.081 -41.8008 207.631" stroke="#29B6F6" stroke-miterlimit="10"/>
        <path d="M-26.1621 154.947C6.75407 131.915 50.591 123.646 93.0437 119.382C138.47 114.795 184.317 113.947 229.938 116.849C246.55 117.888 263.264 119.447 279.799 118.256C296.334 117.066 313.126 112.91 325.944 103.818C338.018 95.1597 345.401 82.8647 351.81 70.6562C359.065 56.8026 365.525 42.5161 367.473 27.3637C369.422 12.2114 366.397 -3.61201 356.142 -15.9287" stroke="#29B6F6" stroke-miterlimit="10"/>
        <path d="M307.894 38.1861C303.639 50.4811 296.358 61.6505 287.104 68.6855C268.108 83.1018 240.37 82.3659 216.375 84.2491C186.818 86.5652 157.132 87.9939 127.42 88.3185C92.6328 88.6432 48.7448 92.3447 16.9055 78.318C7.62783 74.1355 -0.339257 68.1504 -6.33869 60.8566C-12.3381 53.5627 -16.198 45.169 -17.6 36.3678C-25.7521 -18.0723 42.541 -25.2155 89.6078 -29.8262C134.419 -34.1554 179.973 -40.1947 225.194 -37.9435C251.522 -36.6231 287.847 -34.4368 303.69 -13.5915C313.842 -0.257512 314.047 20.1765 307.894 38.1861Z" stroke="#29B6F6" stroke-miterlimit="10"/>
        <path d="M103.834 -2.39974C132.187 -6.03627 161.361 -10.6036 190.457 -9.82433C207.761 -9.39141 228.91 -7.20516 241.984 2.57884C253.033 10.826 255.264 23.5105 249.675 35.0479C246.102 42.4698 239.815 48.7341 231.73 52.9275C219.553 59.2265 204.428 59.5511 190.149 60.3088L187.073 60.5036C168.615 61.759 150.081 63.166 131.546 63.7288C115.293 64.27 96.6308 65.4821 79.7626 62.4734C73.8075 61.4846 68.1114 59.6003 62.9457 56.9103C58.1461 54.2203 54.1552 50.6228 51.2894 46.4032C48.4237 42.1837 46.762 37.4582 46.4364 32.6019C44.4881 4.37546 79.0191 0.78222 103.834 -2.39974Z" stroke="#29B6F6" stroke-miterlimit="10"/>
        <path d="M118.063 25.0255C115.298 25.7849 112.773 27.0655 110.68 28.7703C109.656 29.6434 108.967 30.7564 108.702 31.9646C108.436 33.1729 108.608 34.4205 109.193 35.5455C109.891 36.3929 110.781 37.1158 111.81 37.6729C112.839 38.2301 113.988 38.6105 115.192 38.7924C129.471 42.1042 144.417 36.801 159.208 36.6278C165.002 36.6278 170.796 37.3421 176.589 37.0607C196.149 36.1083 201.584 20.6747 180.306 18.6616C159.255 16.6224 137.93 18.8026 118.063 25.0255Z" stroke="#29B6F6" stroke-miterlimit="10"/>
        <path d="M554.276 502.909C549.8 504.185 545.723 506.299 542.35 509.091C538.976 511.883 536.393 515.283 534.793 519.036C530.87 529.859 537.818 541.418 547.226 549.34C556.634 557.263 568.478 562.999 577.989 570.835C586.628 577.935 593.165 586.615 600.625 594.645C608.085 602.676 616.955 610.187 628.26 613.737C639.565 617.287 653.741 615.902 661.586 608.153C679.377 590.576 675.634 542.024 655.715 525.443C634.182 507.498 582.295 494.099 554.276 502.909Z" stroke="#29B6F6" stroke-miterlimit="10"/>
        <path d="M773.26 1115.81C789.028 1081.45 795.637 1044.58 792.615 1007.82C791.205 990.935 787.846 973.401 794.717 957.492C803.33 937.491 826.479 924.417 850.141 917.035C885.21 906.061 923.228 904.632 960.22 899.978C1044.87 889.24 1125.2 861.401 1194.38 818.827C1205.96 811.684 1217.81 803.913 1231.96 801.878C1246.11 799.844 1263.11 805.991 1265.85 817.896C1267.54 825.278 1263.49 832.724 1263.28 840.257C1262.87 855.409 1277.44 867.596 1282.41 882.099C1289.07 901.407 1278.1 921.473 1270.57 940.543C1259.91 968.125 1256.13 997.272 1259.47 1026.15C1262.81 1055.02 1273.2 1083 1289.97 1108.32" stroke="#29B6F6" stroke-miterlimit="10"/>
        <path d="M662.69 663.782C647.308 680.277 637.746 700.126 628.492 719.694C617.52 742.942 606.539 766.183 595.55 789.416C590.577 799.936 585.552 810.63 584.552 821.886C583.553 833.142 587.116 845.328 597.216 852.861C604.574 858.403 614.418 860.849 623.98 862.862C738.469 886.802 859.11 868.165 973.342 843.38C1040.35 828.812 1109.01 811.106 1161.17 772.749C1173.99 763.376 1185.68 752.661 1192.68 739.695C1198.25 728.572 1201.19 716.639 1201.34 704.564C1203.01 664.908 1181.37 621.464 1137.85 606.506C1119.9 600.381 1100.34 599.536 1081.11 598.757C1070.86 598.346 1060.37 597.935 1050.35 599.861C1038.74 602.026 1028.28 607.264 1017.54 611.637C969.394 631.226 913.457 633.607 862.468 620.923C817.606 609.753 779.921 608.433 734.495 622.33C706.962 630.707 681.07 644.257 662.69 663.782Z" stroke="#29B6F6" stroke-miterlimit="10"/>
        <path d="M726.495 682.074C712.806 693.763 702.834 708.352 694.989 724.002C686.581 740.778 679.044 757.965 671.917 775.001C668.738 782.707 665.662 790.521 665.406 798.66C665.149 806.799 668.123 815.436 675.455 820.869C680.967 824.938 688.273 826.843 695.22 828.358C713.297 832.124 731.748 834.472 750.336 835.372C818.27 839.052 887.614 828.358 954.318 815.024C1005.31 805.024 1059.12 793.054 1099.95 764.849C1109.95 757.944 1119.26 749.999 1125.08 740.324C1129.55 732.394 1132.16 723.809 1132.77 715.041C1135.59 686.1 1120.61 654.908 1087.65 643.349C1074.7 638.825 1060.45 637.959 1046.4 637.223C1038.93 636.579 1031.39 636.739 1023.97 637.699C1015.48 639.084 1007.77 642.505 999.846 645.383C964.29 658.371 923.555 659.8 886.486 651.877C851.519 644.453 820.834 643.976 785.149 653.371C763.103 659.237 742.312 668.588 726.495 682.074Z" stroke="#29B6F6" stroke-miterlimit="10"/>
        <path d="M790.275 700.379C777.842 707.301 767.88 716.955 761.461 728.302C755.877 738.666 751.515 749.469 748.438 760.555C746.824 765.382 746.124 770.393 746.362 775.404C746.669 780.548 749.357 785.383 753.847 788.868C757.642 791.289 762.016 792.981 766.665 793.825C778.414 796.306 790.449 797.693 802.555 797.96C846.853 799.561 891.792 793.63 935.501 786.682C970.417 781.119 1009.41 775.036 1038.92 756.983C1046.34 752.742 1052.71 747.306 1057.65 740.987C1060.94 736.228 1063.16 730.995 1064.19 725.553C1068.27 707.305 1059.88 688.365 1037.45 680.226C1029.2 677.6 1020.5 676.081 1011.69 675.724C1007.01 675.233 1002.28 675.175 997.591 675.55C992.343 676.354 987.194 677.564 982.209 679.165C958.965 685.155 934.382 686.467 910.43 682.997C885.656 679.286 860.25 679.823 835.727 684.577C819.554 687.438 804.146 692.795 790.275 700.379Z" stroke="#29B6F6" stroke-miterlimit="10"/>
        <path d="M854.056 718.676C843.648 720.451 833.342 724.91 827.907 732.616C822.473 740.322 823.575 751.578 832.163 756.86C838.418 760.734 846.801 760.734 854.543 760.561C875.171 760.056 895.807 759.334 916.452 758.396C940.14 757.292 971.928 756.838 990.026 741.686C1001.64 731.988 1001.87 723.113 987.13 717.117C972.389 711.121 950.343 712.788 934.474 714.087C908.403 716.057 879.512 714.347 854.056 718.676Z" stroke="#29B6F6" stroke-miterlimit="10"/>
        <path d="M822.4 1099.19C827.374 1074.3 830.219 1049.14 830.911 1023.9C831.373 1006.59 831.219 988.144 842.601 973.793C858.777 953.402 891.488 949.008 920.38 946.453C995.005 939.959 1071.63 932.773 1138.51 904.308C1156.46 896.71 1176.97 887.446 1195.24 894.351C1207.75 899.07 1215.19 910.542 1217.16 922.015C1219.14 933.487 1216.55 945.09 1214.09 956.476C1203.83 1003.75 1196.3 1055.88 1225.7 1097.02" stroke="#29B6F6" stroke-miterlimit="10"/>
        <path d="M872.182 1101.06C881.564 1086.08 879.36 1068.09 878.232 1051.27C877.104 1034.45 878.052 1015.6 891.716 1003.22C907.097 989.322 932.323 988.565 954.805 987.915C1007.34 986.336 1059.54 980.104 1110.54 969.321C1125.08 966.269 1143.87 964.169 1151.92 974.863C1154.6 979.056 1155.81 983.81 1155.4 988.565C1155.1 1018.87 1134.43 1050.82 1151.04 1077.57" stroke="#29B6F6" stroke-miterlimit="10"/>
        <path d="M933.326 1100.45L934.403 1061.7C934.275 1057.92 934.854 1054.15 936.12 1050.53C938.992 1043.78 946.375 1039.12 954.27 1036.29C972.702 1029.66 993.595 1031.29 1013.64 1031.4C1035.49 1031.5 1057.29 1029.67 1078.68 1025.92C1083.24 1025.12 1088.68 1024.43 1091.93 1027.24C1093.66 1029.01 1094.61 1031.23 1094.65 1033.52C1097.06 1054.75 1079.27 1076.94 1089.52 1096.29" stroke="#29B6F6" stroke-miterlimit="10"/>
        <path d="M999.261 1095.71C997.52 1090.96 996.436 1086.06 996.031 1081.1C995.479 1077.67 996.093 1074.18 997.799 1071.03C1002.57 1063.63 1016.31 1063.98 1023.77 1069.56C1031.23 1075.15 1034.02 1083.83 1036.43 1091.99" stroke="#29B6F6" stroke-miterlimit="10"/>
        <path d="M718.656 -21.0158C681.663 10.6958 642.185 47.6891 643.672 92.1937C644.415 112.628 653.926 131.979 660.873 151.591C674.115 189.592 677.266 229.592 670.102 268.74C665.488 293.806 656.643 318.331 654.08 343.636C651.516 368.94 656.054 396.106 675.178 415.696C690.892 431.844 715.708 442.191 724.911 461.607C730.833 474.119 729.807 489.748 741.215 499.077C747.034 503.904 755.135 506.134 762.903 508.168C814.405 521.654 871.598 532.694 920.869 514.208C953.99 501.783 980.6 476.825 1016.23 471.218C1045.25 466.673 1074.63 475.894 1104.11 476.825C1158.77 478.535 1212.81 448.36 1232.29 405.219C1243.57 380.326 1243.9 353.009 1243.93 326.362C1243.93 263.09 1245.47 194.017 1293.25 145.292C1311.2 126.957 1334.68 112.931 1352.93 94.7912C1371.73 75.7002 1384.39 52.8495 1389.71 28.4337C1395.03 4.01789 1392.83 -21.1428 1383.31 -44.6318" stroke="#29B6F6" stroke-miterlimit="10"/>
        <path d="M1041.38 320.061C1042.3 342.724 1045.99 365.994 1059.32 385.649C1072.65 405.303 1097.55 420.672 1124.36 419.784C1151.17 418.897 1174.86 401.71 1186.86 381.168C1198.86 360.626 1201.37 337.183 1202.52 314.303C1204.78 269.82 1213.73 203.691 1161.1 176.158C1115.67 152.347 1068.81 182.218 1054.22 219.883C1042.1 251.313 1040.02 287.267 1041.38 320.061Z" stroke="#29B6F6" stroke-miterlimit="10"/>
        <path d="M1139.34 -21.7949C1155.46 14.484 1145.28 56.1311 1123.01 89.9856C1119.21 95.7652 1115.01 101.523 1113.37 107.974C1111.73 114.424 1113.16 121.957 1119.16 126.221C1129.6 133.668 1145.49 127.412 1159.03 128.97C1173.46 130.615 1184.81 141.309 1199.3 142.586C1213.78 143.863 1227.04 135.269 1235.91 125.485C1244.78 115.701 1251.13 104.272 1261.54 95.6353C1271.95 86.9985 1285.46 81.8467 1296.41 73.8593C1325.07 52.9708 1330.71 17.9041 1334.35 -13.8941" stroke="#29B6F6" stroke-miterlimit="10"/>
        <path d="M1191.06 -9.91113C1197.78 18.4052 1194.48 47.7637 1181.58 74.5087C1180.24 76.6703 1179.57 79.0829 1179.63 81.5221C1180.22 85.8513 1185.86 88.8601 1191.14 89.0549C1199.34 89.3363 1206.52 84.8989 1213.14 80.6562L1235.23 66.3048C1241.54 62.2354 1248.05 58.0144 1252 52.2565C1255.12 47.1688 1257.24 41.6855 1258.28 36.0219L1268.74 -5.94989" stroke="#29B6F6" stroke-miterlimit="10"/>
        <path d="M1098.99 344.5C1101.49 350.065 1105.49 355.061 1110.68 359.089C1116.11 362.855 1123.91 364.695 1130.34 362.314C1134.94 360.224 1138.71 357.05 1141.21 353.18C1158.39 330.906 1197.07 232.893 1140.16 230.165C1075.66 227.07 1082.58 313.134 1098.99 344.5Z" stroke="#29B6F6" stroke-miterlimit="10"/>
        <path d="M773.202 -9.43503C745.49 13.8996 721.931 43.1869 718.931 76.154C717.239 94.5966 722.059 112.953 725.545 131.2C737.229 192.557 734.16 255.271 716.521 315.604C722.136 333.246 727.904 351.169 739.594 366.581C748.566 378.508 760.922 388.79 766.947 401.973C773.715 416.757 772.074 434.269 782.585 447.43C792.044 459.162 809.22 464.573 825.678 467.387C859.979 473.275 896.74 470.808 928.221 457.82C959.701 444.832 985.183 420.891 994.181 392.34C1004.1 360.802 993.823 327.596 991.618 294.932C988.389 247.24 1002.41 199.847 1031.81 159.037C1056.86 124.403 1093.52 93.3844 1099.77 53.2091C1103.62 26.1297 1092.9 -1.51253 1074.68 -24.0029" stroke="#29B6F6" stroke-miterlimit="10"/>
        <path d="M803.041 -7.83307C782.276 11.8867 764.434 36.0222 761.819 62.9069C760.358 78.0593 763.741 92.9302 766.1 107.823C773.896 158.02 770.698 209 756.666 258.221C758.999 266.62 761.357 275.083 764.639 283.201C766.937 289.045 769.89 294.692 773.457 300.063C780.174 309.956 789.557 318.657 794.427 329.394C799.888 341.516 799.401 355.369 808.45 365.803C816.397 374.873 830.035 379.007 843.212 380.955C870.565 385.09 899.764 382.362 924.092 371.215C936.659 365.414 947.689 357.507 956.505 347.978C965.322 338.449 971.739 327.499 975.364 315.8C983.054 290.431 975.774 263.849 974.492 237.722C972.857 199.484 983.959 161.626 1006.54 128.452C1025.89 100.074 1053.55 74.1197 1057.81 41.4987C1060.76 19.5278 1052.17 -2.87607 1037.66 -21.2754" stroke="#29B6F6" stroke-miterlimit="10"/>
        <path d="M832.886 -6.20944C819.094 9.85194 806.917 28.8572 804.686 49.659C803.456 61.3046 805.404 72.9069 806.66 84.4443C810.553 123.451 807.241 162.731 796.842 200.878C798.252 207.372 799.687 213.866 801.738 220.36C803.192 224.908 805.114 229.341 807.481 233.607C811.941 241.486 818.376 248.565 822.042 256.877C826.246 266.336 826.938 276.726 834.501 284.281C840.884 290.774 851.036 293.567 860.905 294.692C881.286 297.073 902.948 294.043 920.149 284.757C938.607 274.8 951.374 258.002 956.629 239.452C962.038 220.23 957.808 200.272 957.552 180.618C957.471 151.831 965.661 123.457 981.418 97.9298C995.057 75.7209 1013.75 54.9623 1016.23 29.8745C1017.9 12.969 1011.54 -4.17471 1000.85 -18.5693" stroke="#29B6F6" stroke-miterlimit="10"/>
        <path d="M862.647 -4.58682C855.802 7.83803 849.291 21.6915 847.522 36.4108C846.899 44.6189 846.813 52.8497 847.266 61.0657C847.255 88.7969 843.818 116.451 837.012 143.581C837.473 148.234 837.96 152.91 838.832 157.499C839.382 160.769 840.239 163.997 841.395 167.153C843.626 172.998 847.061 178.496 849.573 184.34C852.47 191.159 854.316 198.02 860.417 202.783C865.451 206.349 871.791 208.337 878.362 208.411C891.966 209.166 905.407 205.556 915.994 198.302C927.94 189.643 934.375 176.656 937.708 163.062C940.938 150.074 939.681 136.675 940.451 123.471C941.872 104.165 947.187 85.2046 956.165 67.408C964.035 51.3466 973.776 35.7831 974.366 18.2281C974.55 6.25183 970.825 -5.53605 963.599 -15.8428" stroke="#29B6F6" stroke-miterlimit="10"/>
        <path d="M892.591 -2.96318C892.95 29.9606 880.209 61.9753 875.953 94.6394C874.646 104.618 875.748 117.086 886.541 121.286C895.898 124.901 907.203 119.403 912.176 111.848C917.15 104.294 917.79 95.2887 919.149 86.6952C921.713 69.8761 927.891 53.5982 931.223 36.909C934.556 20.2199 935.043 2.36177 926.737 -13.1152" stroke="#29B6F6" stroke-miterlimit="10"/>
        <path d="M1223.34 477.948C1212.96 484.183 1204.04 493.945 1205.14 504.66C1206.7 519.812 1225.65 528.081 1240.31 536.934C1268.02 553.775 1285.15 580.638 1294.68 608.366C1304.04 635.511 1308.55 666.529 1334.06 684.842C1356.42 700.86 1388.56 702.159 1417.79 699.886C1452.88 697.202 1488.62 690.189 1517.1 672.677C1545.58 655.165 1565.45 625.402 1560.19 595.985C1558.5 585.425 1553.15 575.523 1544.81 567.52C1530.51 554.229 1508.61 549.229 1488 544.857C1440.35 534.748 1382.2 530.873 1344.44 502.214C1310.58 476.26 1268.07 451.41 1223.34 477.948Z" stroke="#29B6F6" stroke-miterlimit="10"/>
        <path d="M1367.97 564.537C1363.25 563.87 1358.41 564.01 1353.75 564.948C1341.41 568.152 1336.62 581.031 1337.57 591.898C1338.85 606.92 1347.41 621.055 1359.21 632.333C1371.54 644.173 1388.02 653.438 1406.45 656.144C1421.12 658.308 1436.16 656.144 1450.6 653.135C1482.18 646.641 1539.04 608.132 1493.2 582.438C1480.62 575.382 1461.34 576.68 1447.06 575.187C1420.5 572.373 1394.58 566.918 1367.97 564.537Z" stroke="#29B6F6" stroke-miterlimit="10"/>
        <path d="M1444.58 -22.9209C1445.98 7.50135 1441.18 37.9002 1430.4 66.9537C1427.17 75.6121 1423.87 86.3053 1431.3 92.929C1436.92 97.9509 1446.22 98.1024 1454.37 97.4098C1477.45 95.5049 1499.83 89.8553 1522.49 85.7858C1616.75 68.8802 1714.57 79.1405 1809.86 91.3489C1862.41 98.0808 1919.58 104.705 1965.85 82.6904" stroke="#29B6F6" stroke-miterlimit="10"/>
        <path d="M1492.92 -9.67285C1495.89 5.73662 1493.15 21.5448 1485.08 35.5893C1483.44 37.9075 1482.39 40.4874 1482 43.1655C1481.77 48.5121 1487.72 52.8846 1493.95 53.9885C1500.18 55.0925 1506.53 53.6422 1512.69 52.3001C1573.91 39.1318 1637.16 33.9705 1700.24 36.9963C1744.3 39.1609 1788.06 45.2218 1832.18 46.0011C1876.3 46.7804 1921.91 41.8883 1960.36 23.5107" stroke="#29B6F6" stroke-miterlimit="10"/>
        <path d="M1938.42 161.114C1911.51 171.937 1880.49 172.543 1850.83 170.141C1821.17 167.738 1791.87 162.435 1762.08 161.937C1753.34 161.807 1743.57 162.435 1737.62 167.868C1731.67 173.301 1731.7 182.263 1734.26 189.579C1736.83 196.895 1741.44 203.757 1742.83 211.225C1744.29 219.234 1742.03 227.351 1741.57 235.426C1741.11 243.5 1743.06 252.526 1750.59 257.526C1762.46 265.384 1779.69 259.041 1794.69 260.34C1811.73 261.834 1824.81 273.133 1839.11 281.121C1855.47 289.967 1874.36 294.897 1893.77 295.385C1913.19 295.873 1932.4 291.9 1949.34 283.891" stroke="#29B6F6" stroke-miterlimit="10"/>
        <path d="M1933.58 191.203C1901.69 202.026 1865.93 199.862 1831.65 197.567C1818.68 196.68 1802.79 197.004 1796.43 206.594C1791.64 213.78 1795.17 223.326 1802.17 229.062C1809.17 234.799 1818.86 237.678 1828.27 239.842C1868.03 248.977 1911.05 250.665 1950.11 239.474" stroke="#29B6F6" stroke-miterlimit="10"/>
        <path d="M1449.01 177.89C1414.27 187.523 1379 201.701 1359.03 227.676C1334.88 258.933 1338.52 299.606 1346.03 336.382C1350.9 360.041 1357.21 383.874 1370.69 405C1384.18 426.127 1405.81 444.526 1433.04 451.409C1460.26 458.292 1490.33 452.924 1515.41 441.582C1540.48 430.239 1561.35 413.334 1581.06 396.017C1605.83 374.779 1628.43 351.81 1648.61 327.356C1663.5 308.827 1676.55 288.869 1682.91 267.137C1689.27 245.404 1688.5 221.68 1676.78 201.528C1633.92 128.061 1518.12 158.755 1449.01 177.89Z" stroke="#29B6F6" stroke-miterlimit="10"/>
        <path d="M1628.44 221.074C1586.71 177.068 1511.24 194.688 1460.58 210.403C1435.35 218.13 1410.05 229.17 1395.41 248.175C1378.9 269.627 1379.08 296.814 1383.34 322.509C1383.65 324.327 1383.98 326.145 1384.31 327.942C1387.6 345.367 1392.21 362.944 1402.49 378.291C1412.77 393.638 1429.38 406.431 1449.68 410.977C1469.99 415.522 1492.03 411.193 1510.39 402.599C1528.74 394.006 1543.72 381.646 1558.12 368.896C1576.01 353.133 1592.58 336.338 1607.7 318.634C1619.93 304.217 1632.67 287.615 1638.98 270.255C1645.41 252.44 1642.28 235.686 1628.44 221.074Z" stroke="#29B6F6" stroke-miterlimit="10"/>
        <path d="M1580.1 240.641C1555.08 216.83 1504.48 230.749 1472.1 242.806C1456.44 248.694 1441.08 256.465 1431.8 268.608C1421.29 282.31 1420.03 299.303 1422.08 315.927C1422.24 317.096 1422.39 318.265 1422.57 319.412C1424.26 330.625 1427.19 341.967 1434.24 351.513C1437.72 356.387 1442.38 360.593 1447.9 363.862C1453.42 367.13 1459.69 369.39 1466.31 370.497C1479.48 372.51 1493.69 369.393 1505.32 363.527C1516.96 357.661 1526.17 349.911 1535.16 341.708C1546.29 331.534 1556.67 320.711 1566.8 309.866C1576.41 299.562 1588.84 286.293 1595 273.284C1601.59 259.495 1600.69 246.183 1580.1 240.641Z" stroke="#29B6F6" stroke-miterlimit="10"/>
        <path d="M1460.83 309.519C1460.83 314.974 1461.83 320.753 1465.95 324.909C1474.13 332.983 1490.13 331.035 1500.2 324.649C1510.28 318.264 1516.84 308.718 1525.84 301.272C1541.22 288.284 1578.65 256.941 1531.71 260.144C1500.41 262.396 1461.47 280.254 1460.83 309.519Z" stroke="#29B6F6" stroke-miterlimit="10"/>
        <path d="M1959.14 360.798C1945.98 368.27 1930.79 372.808 1915 373.988C1899.2 375.169 1883.31 372.955 1868.8 367.552C1848.96 359.954 1831.93 346.36 1810.45 343.416C1777.13 338.871 1747.62 361.318 1725.24 382.769C1692.83 413.815 1662.77 446.551 1635.23 480.783C1621.29 498.1 1607.78 516.283 1602.52 536.76C1598.68 551.696 1599.45 567.173 1597.81 582.39C1590.86 647.178 1538.69 705.146 1470.91 736.078C1446.99 747.01 1418.84 756.989 1408.95 778.375C1395.46 807.533 1423.92 837.967 1428.25 869.051C1431.12 889.658 1423.13 910.179 1419.59 930.613C1408.59 993.993 1443.2 1061.51 1505.47 1098.09C1634.69 1173.98 1788.51 1216.28 1943.63 1238.79" stroke="#29B6F6" stroke-miterlimit="10"/>
        <path d="M1961.26 397.641C1949.74 404.053 1936.53 407.979 1922.8 409.073C1909.06 410.168 1895.22 408.398 1882.48 403.919C1865.15 397.641 1850.16 386.32 1831.39 383.917C1802.27 380.194 1776.5 399.07 1756.61 417.123C1727.46 443.582 1700.63 471.797 1676.32 501.543C1663.99 516.695 1652.07 532.519 1647.15 550.334C1645.84 555.328 1644.92 560.39 1644.4 565.486C1643.51 573.668 1643.22 581.937 1642.2 590.119C1635.84 641.334 1599.23 688.112 1550.35 717.724C1545.22 720.827 1539.99 723.713 1534.66 726.382C1514.66 736.491 1491.08 745.864 1482.39 764.523C1470.57 789.957 1493.23 816.236 1496.05 843.185C1496.72 853.357 1495.71 863.558 1493.03 873.49C1491.26 881.218 1489.18 888.967 1487.9 896.738C1485.74 909.573 1485.57 922.592 1487.41 935.463C1493.33 977.977 1519.74 1018.69 1561.11 1043.54C1591.75 1061.76 1624.21 1077.7 1658.12 1091.16C1748.82 1127.79 1847.82 1150.91 1947.16 1164.98" stroke="#29B6F6" stroke-miterlimit="10"/>
        <path d="M1963.39 434.482C1953.51 439.826 1942.28 443.133 1930.61 444.137C1918.94 445.141 1907.15 443.813 1896.2 440.262C1881.35 435.305 1868.36 426.278 1852.36 424.395C1827.52 421.473 1805.45 436.669 1788.01 451.475C1762.17 473.399 1738.55 497.12 1717.41 522.388C1706.67 535.246 1696.39 548.839 1691.78 564.035C1690.54 568.31 1689.63 572.648 1689.06 577.023C1688.09 583.993 1687.63 591.05 1686.5 598.041C1680.04 641.81 1650.22 682.31 1610.92 709.022C1606.82 711.792 1602.62 714.455 1598.31 716.922C1582.24 726.187 1563.24 734.846 1555.73 750.907C1545.61 772.553 1562.45 794.741 1563.78 817.556C1563.93 826.217 1562.82 834.861 1560.47 843.293C1558.88 849.895 1557.14 856.519 1556.01 863.143C1554.2 874.114 1554.04 885.234 1555.53 896.24C1560.32 932.562 1581.62 967.673 1616.56 989.319C1642.81 1005.23 1670.93 1018.81 1700.47 1029.84C1779.22 1060.32 1864.54 1079.63 1950.49 1091.29" stroke="#29B6F6" stroke-miterlimit="10"/>
        <path d="M1965.52 471.457C1957.27 475.719 1948.02 478.399 1938.41 479.308C1928.8 480.217 1919.07 479.332 1909.91 476.717C1897.56 473.081 1886.56 466.349 1873.33 464.985C1852.82 462.82 1834.37 474.423 1819.5 485.917C1796.95 503.248 1776.55 522.475 1758.61 543.301C1749.49 553.929 1740.67 565.228 1736.57 577.783C1735.41 581.296 1734.51 584.868 1733.88 588.476C1732.82 594.256 1732.16 600.079 1731.13 605.901C1724.57 642.224 1701.55 676.425 1671.81 700.235C1668.7 702.732 1665.52 705.106 1662.28 707.357C1650.12 715.799 1635.69 723.765 1629.38 737.185C1620.93 755.173 1631.95 773.161 1631.79 791.799C1631.44 798.938 1630.25 806.029 1628.23 812.969C1626.85 818.423 1625.41 823.922 1624.49 829.42C1623.03 838.483 1622.87 847.663 1624.03 856.759C1627.67 886.912 1643.95 916.351 1672.38 934.793C1693.88 948.733 1718.34 959.253 1743.18 968.28C1809.83 992.61 1881.87 1008.09 1954.19 1017.39" stroke="#29B6F6" stroke-miterlimit="10"/>
        <path d="M1967.66 508.251C1961.05 511.445 1953.76 513.508 1946.2 514.321C1938.64 515.135 1930.97 514.683 1923.62 512.991C1913.75 510.697 1904.75 506.259 1894.29 505.415C1878.04 504.116 1863.22 512.017 1850.71 520.199C1831.44 532.877 1814.2 547.619 1799.44 564.054C1791.55 572.242 1785.29 581.461 1780.91 591.35C1779.87 594.129 1779.01 596.954 1778.34 599.813C1777.19 604.381 1776.37 609.013 1775.32 613.645C1768.53 642.079 1753.77 668.726 1732.28 691.354C1730.17 693.519 1728.02 695.683 1725.82 697.697C1717.56 705.294 1707.87 712.589 1702.74 723.347C1695.98 737.612 1701.21 751.487 1699.51 765.946C1698.65 771.542 1697.38 777.087 1695.69 782.549C1694.49 786.878 1693.36 791.207 1692.67 795.536C1691.55 802.772 1691.4 810.092 1692.23 817.356C1694.8 841.318 1705.92 865.15 1727.89 880.367C1744.86 892.099 1765.19 900.043 1785.57 906.797C1840.43 924.958 1898.83 936.625 1957.59 943.595" stroke="#29B6F6" stroke-miterlimit="10"/>
        <path d="M1969.79 545.056C1959.79 549.363 1948.42 550.879 1937.34 549.385C1929.93 548.411 1922.98 546.268 1915.26 545.943C1903.29 545.467 1892.19 549.688 1882.17 554.602C1866.32 562.54 1852.29 572.802 1840.72 584.906C1834.59 590.976 1829.55 597.764 1825.74 605.059C1824.74 607.123 1823.88 609.201 1823.18 611.293C1821.95 614.648 1820.92 618.068 1819.87 621.51C1813.33 642.553 1804.37 663.005 1793.11 682.574C1792.01 684.457 1790.88 686.319 1789.73 688.137C1785.39 694.912 1780.14 701.536 1776.22 709.632C1771.09 720.195 1770.55 729.849 1767.37 740.218C1766.14 744.114 1764.58 748.097 1763.27 752.232C1762.25 755.397 1761.47 758.614 1760.94 761.864C1760.19 767.23 1760.05 772.645 1760.53 778.034C1761.91 795.849 1767.99 814.075 1783.6 826.023C1796.03 835.591 1812.23 840.959 1828.18 845.505C1871.4 857.313 1915.91 865.435 1961.05 869.749" stroke="#29B6F6" stroke-miterlimit="10"/>
        <path d="M1971.93 581.853C1953.62 588.087 1932.6 584.428 1913.56 588.801C1893.43 593.412 1877.28 606.832 1867.82 622.526C1858.36 638.219 1855 656.013 1853.75 673.589C1853.23 681.079 1853.08 688.742 1849.62 695.69C1844.93 705.085 1834.62 712.012 1830.78 721.666C1828.99 727.122 1828.32 732.794 1828.78 738.442C1829.01 750.066 1829.91 762.729 1839.03 771.409C1846.88 778.812 1859.03 781.583 1870.51 783.769C1901.47 789.62 1932.87 793.634 1964.49 795.783" stroke="#29B6F6" stroke-miterlimit="10"/>
    </g>
    <path d="M1921.39 -0.430664H-1.27148V1081.88H1921.39V-0.430664Z" stroke="#505050" stroke-miterlimit="10"/>
</svg>
